<?xml version="1.0" encoding="utf-8"?>
<!-- Generator: Adobe Illustrator 23.0.2, SVG Export Plug-In . SVG Version: 6.00 Build 0)  -->
<svg version="1.1" id="Layer_1" xmlns="http://www.w3.org/2000/svg" xmlns:xlink="http://www.w3.org/1999/xlink" x="0px" y="0px"
	 viewBox="0 0 100 100" style="enable-background:new 0 0 100 100;" xml:space="preserve">
<style type="text/css">
	.st0{fill:#c7392d;}
</style>
<g>
	<path class="st0" d="M63.6,85.4c-1.7,0-3-1.4-3-3V38.7c0-1.7,1.4-3.1,3-3.1c1.7,0,3.1,1.4,3.1,3.1v43.6
		C66.7,84,65.3,85.4,63.6,85.4z"/>
	<path class="st0" d="M36.4,85.4c-1.7,0-3.1-1.4-3.1-3V38.7c0-1.7,1.4-3.1,3.1-3.1c1.7,0,3,1.4,3,3.1v43.6
		C39.4,84,38.1,85.4,36.4,85.4z"/>
	<path class="st0" d="M28.2,100c-3.3,0-6.5-1.4-8.8-3.8c-2.3-2.4-3.6-5.8-3.6-9.3V30.6c-4.3-1.4-7.1-5.8-6.5-10.3
		C10,15.6,14,12,18.8,12h11.1V9.9c0-2.6,1-5.1,2.9-7C34.6,1,37.1,0,39.7,0h20.6c2.7,0,5.1,1,7,2.9c1.8,1.8,2.9,4.4,2.9,7V12h11.1
		c4.8,0,8.9,3.6,9.5,8.3c0.6,4.6-2.2,8.9-6.5,10.3v56.3c0,3.5-1.3,6.9-3.6,9.3c-2.3,2.4-5.5,3.8-8.8,3.8H28.2z M21.9,86.9
		c0,3.9,2.8,7,6.3,7h43.7c3.5,0,6.3-3.1,6.3-7V31H21.9V86.9z M18.8,18.1c-1.9,0-3.4,1.5-3.4,3.4c0,1.9,1.5,3.4,3.4,3.4h62.4
		c1.9,0,3.4-1.5,3.4-3.4c0-1.9-1.5-3.4-3.4-3.4H18.8z M64,12V9.9c0-1-0.4-2-1.1-2.7c-0.7-0.7-1.6-1.1-2.6-1.1H39.7
		c-1,0-1.9,0.4-2.6,1.1C36.4,7.9,36,8.9,36,9.8V12H64z"/>
	<path class="st0" d="M50,85.4c-1.7,0-3.1-1.4-3.1-3V38.7c0-1.7,1.4-3.1,3.1-3.1s3.1,1.4,3.1,3.1v43.6C53.1,84,51.7,85.4,50,85.4z"
		/>
</g>
</svg>
